<svg version="1.1" id="Layer_1" xmlns="http://www.w3.org/2000/svg" xmlns:xlink="http://www.w3.org/1999/xlink" x="0px" y="0px"
	 width="100%" viewBox="0 0 512 512" enable-background="new 0 0 512 512" xml:space="preserve">
<path fill="#000000" opacity="1.000000" stroke="none" 
	d="
M296.000000,137.941162 
	C305.228638,137.940491 313.957275,137.940491 323.820770,137.940491 
	C320.775757,143.801590 316.788849,147.487259 314.324005,152.048309 
	C310.232056,159.620316 304.393066,162.081650 295.942230,161.314880 
	C287.518433,160.550537 278.967285,161.302673 270.481079,161.065109 
	C266.279633,160.947495 264.763977,162.581589 265.134552,166.620239 
	C266.665161,183.300842 262.431000,199.295807 259.222290,215.409119 
	C258.643280,218.316650 257.843597,220.786316 253.909698,220.486465 
	C251.087296,220.271347 249.377838,222.240860 248.450516,224.804291 
	C247.905823,226.309998 247.413391,227.834625 246.383453,229.318039 
	C243.926559,218.590073 241.436874,207.948380 240.959656,197.050034 
	C240.515671,186.910980 240.683624,176.734848 240.903580,166.582016 
	C240.992371,162.482422 239.687271,160.968430 235.503220,161.050278 
	C224.683334,161.261963 213.855698,161.044754 203.032913,161.161743 
	C200.096039,161.193481 198.000443,160.313583 196.257217,157.894745 
	C191.806625,151.719177 187.180069,145.670441 182.623901,139.570969 
	C182.784027,139.027924 182.944153,138.484863 183.104279,137.941818 
	C220.569519,137.941818 258.034760,137.941818 296.000000,137.941162 
z"/>
<path fill="#000000" opacity="1.000000" stroke="none" 
	d="
M243.165314,230.102661 
	C244.006729,235.441574 244.787430,240.347549 245.568130,245.253540 
	C245.836929,245.291550 246.105713,245.329544 246.374496,245.367554 
	C247.537308,239.859329 248.795776,234.368958 249.829483,228.836594 
	C250.524139,225.118744 252.017029,222.570602 256.313660,222.921906 
	C260.204590,223.240036 260.914734,220.467926 261.491882,217.560837 
	C263.207397,208.919464 264.942139,200.281891 266.648407,191.638687 
	C267.048889,189.610153 267.413116,187.533463 270.114990,187.574600 
	C272.806183,187.615585 273.094635,189.650314 273.439301,191.722122 
	C275.727509,205.477325 278.067535,219.223907 280.390656,232.973297 
	C280.578583,234.085526 280.483704,235.297867 281.910034,236.497177 
	C283.529663,229.284271 285.126953,222.351028 286.623260,215.396057 
	C287.063751,213.348480 287.490295,211.334991 289.958893,211.036133 
	C292.150360,210.770844 293.513000,212.395554 294.058167,214.089859 
	C296.881348,222.863907 303.159424,224.811584 311.496429,223.744049 
	C315.428101,223.240616 319.479431,223.679916 323.476532,223.675507 
	C325.580750,223.673187 327.150269,224.344910 327.044403,226.771820 
	C326.947388,228.995316 325.285400,229.370010 323.502960,229.373657 
	C315.175812,229.390656 306.847473,229.300613 298.521881,229.416473 
	C294.914886,229.466675 294.123138,226.316772 291.799561,223.826218 
	C289.114014,231.391968 288.285370,238.936203 286.435425,246.208679 
	C285.657684,249.266129 285.049438,252.366943 284.378204,255.451096 
	C283.957764,257.382904 283.125641,259.059357 280.889740,259.026611 
	C278.643616,258.993713 277.914581,257.331207 277.590332,255.338623 
	C275.642609,243.370468 273.663605,231.407364 271.669891,219.446762 
	C271.239868,216.866928 270.706573,214.304306 269.299988,211.663269 
	C268.321045,215.919373 267.180481,220.146667 266.414490,224.440765 
	C265.807373,227.844406 264.003998,229.512512 260.645752,229.272141 
	C257.122986,229.020004 255.697281,230.508438 255.091202,233.996063 
	C253.384491,243.817474 251.274155,253.568375 249.365814,263.355438 
	C248.922668,265.628235 249.039215,268.406128 245.829102,268.497711 
	C242.191040,268.601440 242.329865,265.317383 241.958191,263.080139 
	C239.099869,245.874741 236.419113,228.639893 233.661652,211.417648 
	C233.359604,209.531250 232.920929,207.666718 231.874115,205.800278 
	C229.746826,215.474991 227.577316,225.140747 225.524155,234.831161 
	C225.055267,237.044128 224.668564,239.313492 222.086014,239.739578 
	C219.358871,240.189514 218.506210,237.831177 217.483139,235.940842 
	C215.680710,232.610489 213.898651,229.269135 212.097214,225.912140 
	C202.197693,232.184875 191.683075,228.404938 181.652832,229.253342 
	C179.934387,229.398712 178.824570,228.272217 178.881897,226.446777 
	C178.949448,224.295959 180.412659,223.692856 182.282944,223.687973 
	C187.445831,223.674515 192.623352,223.426315 197.767044,223.736237 
	C201.944427,223.987946 205.026566,222.690979 207.916016,219.669312 
	C212.061661,215.334030 213.908569,215.804428 216.801636,221.184769 
	C217.798019,223.037781 218.812927,224.880844 221.001923,226.610977 
	C222.893814,217.767868 224.781723,208.923904 226.679367,200.082031 
	C227.585785,195.858566 228.509247,191.638763 229.427872,187.417923 
	C229.833847,185.552505 230.368042,183.720032 232.781860,183.812073 
	C235.349548,183.909973 235.952545,185.839279 236.292328,187.921692 
	C238.563019,201.837692 240.833817,215.753708 243.165314,230.102661 
z"/>
<path fill="#000000" opacity="1.000000" stroke="none" 
	d="
M265.155518,299.808716 
	C264.910583,302.518158 265.817932,304.902985 264.402832,307.056427 
	C262.109863,307.382477 261.129883,305.542664 259.880737,304.377258 
	C255.620758,300.402863 251.890640,295.717346 247.188232,292.392334 
	C239.179153,286.729218 240.502701,279.212402 241.344376,271.462891 
	C249.671936,271.376984 250.394211,270.875122 252.104553,262.892242 
	C254.017426,253.964142 255.823669,245.011444 257.522614,236.040329 
	C258.024353,233.390976 258.935364,231.707184 261.962128,231.842972 
	C265.584839,232.005493 265.089691,234.654236 265.094391,236.907516 
	C265.137909,257.718597 265.139587,278.529785 265.155518,299.808716 
z"/>
<path fill="#000000" opacity="1.000000" stroke="none" 
	d="
M322.290710,333.222443 
	C322.001190,337.627441 320.650208,341.243103 322.972107,345.604858 
	C325.297821,349.973724 321.682098,354.681305 316.586395,355.163910 
	C311.980743,355.600128 307.306824,355.330872 302.662933,355.339661 
	C300.956696,355.342896 299.695648,354.646790 299.726593,352.745422 
	C299.863647,344.319458 298.268616,335.879730 299.810120,326.987549 
	C305.123840,326.453918 310.398499,326.323273 315.611420,326.992706 
	C318.852081,327.408875 321.551178,329.147217 322.290710,333.222443 
M307.140137,343.508911 
	C304.259827,344.906555 304.463196,347.808807 305.754608,349.395355 
	C307.861420,351.983582 311.333496,350.479462 314.210205,350.399994 
	C315.908203,350.353058 317.446045,349.310059 317.642670,347.345367 
	C317.869690,345.077057 316.365875,343.902313 314.417938,343.621429 
	C312.295959,343.315399 310.109100,343.459229 307.140137,343.508911 
M312.134094,332.079712 
	C310.982635,332.078064 309.831116,332.081085 308.679688,332.073761 
	C306.223236,332.058167 305.106079,333.228363 305.174255,335.726440 
	C305.242584,338.231262 306.757507,338.694061 308.796448,338.629944 
	C310.111694,338.588593 311.449829,338.712006 312.738068,338.509460 
	C314.593506,338.217712 316.414154,337.514221 316.545746,335.302063 
	C316.686340,332.939697 314.928528,332.326660 312.134094,332.079712 
z"/>
<path fill="#000000" opacity="1.000000" stroke="none" 
	d="
M244.390259,354.980347 
	C241.605164,346.325195 243.175995,337.719330 243.069000,329.177795 
	C243.045914,327.333984 244.505386,326.724030 246.181671,326.723114 
	C250.164764,326.720886 254.173737,326.446198 258.125153,326.803101 
	C264.761780,327.402496 267.550110,332.267181 264.906799,338.428772 
	C264.242188,339.977997 264.169678,340.863098 265.172668,342.380676 
	C269.314270,348.647156 266.256989,354.828552 258.746033,355.286499 
	C254.123566,355.568329 249.463394,355.232178 244.390259,354.980347 
M254.340378,350.618317 
	C257.399414,350.639526 261.244904,350.710999 261.247681,346.817841 
	C261.250702,342.590240 257.127655,343.552856 254.278687,343.335785 
	C254.113571,343.323212 253.946640,343.335175 253.780548,343.334900 
	C251.056076,343.330505 248.342300,343.089661 248.331329,347.198669 
	C248.320496,351.259003 251.089066,350.534637 254.340378,350.618317 
M256.777496,332.128937 
	C255.779312,332.084106 254.771667,331.930389 253.784851,332.016235 
	C251.446732,332.219635 248.438217,331.374512 248.376541,335.369568 
	C248.312302,339.530060 251.364899,338.501495 253.686188,338.592682 
	C254.834610,338.637756 256.036133,338.546082 257.138763,338.243500 
	C258.621765,337.836670 260.056244,337.007385 260.240082,335.338318 
	C260.435669,333.562744 259.140900,332.694580 256.777496,332.128937 
z"/>
<path fill="#000000" opacity="1.000000" stroke="none" 
	d="
M214.081665,327.754944 
	C217.913177,325.723938 220.152573,326.765747 221.692703,330.476868 
	C224.981583,338.401764 228.532669,346.217834 232.054184,354.256226 
	C228.608521,356.069214 226.772171,355.365295 225.166977,352.472229 
	C222.603470,347.851929 211.308640,347.876892 208.844971,352.530457 
	C207.491547,355.086945 205.906326,355.890869 202.512253,354.654968 
	C205.167877,345.315796 210.171066,336.959229 214.081665,327.754944 
M218.180954,335.931976 
	C217.677246,335.374878 217.304840,333.424713 216.389801,335.147369 
	C214.974380,337.812103 213.232590,340.526917 213.564941,343.948608 
	C216.088242,344.903992 218.415405,344.927765 221.308395,343.909576 
	C220.313202,341.304718 219.392410,338.894592 218.180954,335.931976 
z"/>
<path fill="#000000" opacity="1.000000" stroke="none" 
	d="
M186.291870,345.958893 
	C186.275528,348.106750 186.296295,349.766785 186.237000,351.423950 
	C186.169464,353.311096 186.032501,355.202026 183.430298,355.242706 
	C180.759109,355.284515 180.687866,353.385834 180.678619,351.490082 
	C180.655136,346.679443 180.485962,341.860657 180.708023,337.060516 
	C180.872406,333.507080 179.734741,331.783081 175.981522,331.912354 
	C174.065521,331.978363 171.692688,332.020386 171.858429,328.978577 
	C172.013290,326.136292 174.309875,326.731995 175.979797,326.708374 
	C181.452332,326.631073 186.927200,326.685638 192.400726,326.737549 
	C193.813965,326.750946 195.026749,327.149139 195.147964,328.918213 
	C195.255539,330.488281 194.551361,331.876892 193.078659,331.738953 
	C184.882584,330.971344 186.254517,336.647247 186.302765,341.488464 
	C186.315979,342.815399 186.297531,344.142670 186.291870,345.958893 
z"/>
<path fill="#000000" opacity="1.000000" stroke="none" 
	d="
M335.979584,335.101074 
	C336.063660,332.626678 336.030701,330.621094 336.267548,328.647919 
	C336.469513,326.965637 337.818420,326.710663 339.271301,326.771637 
	C340.718262,326.832397 341.301910,327.626831 341.392456,328.993530 
	C341.898987,336.638428 342.133362,344.289001 341.793610,351.946075 
	C341.716675,353.679871 341.307800,355.277863 338.985504,355.271851 
	C336.393158,355.265167 336.060974,353.514404 336.042633,351.566315 
	C335.992401,346.239136 335.996826,340.911438 335.979584,335.101074 
z"/>
<path fill="#000000" opacity="1.000000" stroke="none" 
	d="
M279.650177,347.921204 
	C279.656555,341.787811 279.655487,336.144928 279.674316,330.502136 
	C279.680786,328.572418 279.843842,326.751984 282.511200,326.830017 
	C285.127899,326.906647 285.261139,328.742035 285.265228,330.651245 
	C285.279388,337.289856 285.314789,343.928986 285.246643,350.566895 
	C285.225586,352.616760 285.744110,355.287018 282.354218,355.210449 
	C278.917969,355.132843 279.920868,352.358917 279.669861,350.401733 
	C279.586060,349.748322 279.652649,349.075653 279.650177,347.921204 
z"/>
</svg>